<svg xmlns="http://www.w3.org/2000/svg" viewBox="0 0 800 500" font-family="'Space Grotesk',sans-serif">
  <defs>
    <linearGradient id="bg3" x1="0" y1="0" x2="1" y2="1">
      <stop offset="0" stop-color="#0c1318"/><stop offset="1" stop-color="#0a0c12"/>
    </linearGradient>
  </defs>
  <rect width="800" height="500" fill="url(#bg3)"/>
  <!-- wires -->
  <g fill="none" stroke="#34e2a8" stroke-width="2" stroke-opacity=".5" stroke-dasharray="6 8">
    <path d="M170 130 C320 130 320 360 470 360"/>
    <path d="M170 130 C360 130 440 230 620 230"/>
    <path d="M470 360 C580 360 560 230 620 230"/>
  </g>
  <!-- nodes -->
  <g>
    <rect x="120" y="100" width="100" height="60" rx="14" fill="#ffffff" opacity=".06" stroke="#34e2a8" stroke-opacity=".6"/>
    <text x="170" y="136" fill="#cfeede" font-size="14" text-anchor="middle">Trigger</text>
    <rect x="420" y="330" width="100" height="60" rx="14" fill="#ffffff" opacity=".06" stroke="#8b7bff" stroke-opacity=".6"/>
    <text x="470" y="366" fill="#d8d2ff" font-size="14" text-anchor="middle">AI Route</text>
    <rect x="570" y="200" width="100" height="60" rx="14" fill="#34e2a8" opacity=".14" stroke="#34e2a8" stroke-opacity=".7"/>
    <text x="620" y="236" fill="#9af0cf" font-size="14" text-anchor="middle">Sync</text>
    <rect x="120" y="300" width="100" height="60" rx="14" fill="#ffffff" opacity=".06" stroke="#58b9ff" stroke-opacity=".6"/>
    <text x="170" y="336" fill="#bfe2ff" font-size="14" text-anchor="middle">Webhook</text>
  </g>
  <text x="60" y="60" fill="#34e2a8" font-size="22" font-weight="600">AI-Powered Landing Page Builder</text>
  <text x="120" y="478" fill="#5d5f6a" font-size="13">Campaign builder workflow · internal marketing platform</text>
</svg>
