<svg xmlns="http://www.w3.org/2000/svg" viewBox="0 0 800 500" font-family="'Space Grotesk',sans-serif">
  <defs>
    <linearGradient id="bg1" x1="0" y1="0" x2="1" y2="1">
      <stop offset="0" stop-color="#10131b"/><stop offset="1" stop-color="#0a0c12"/>
    </linearGradient>
    <linearGradient id="bar1" x1="0" y1="1" x2="0" y2="0">
      <stop offset="0" stop-color="#34e2a8" stop-opacity=".15"/><stop offset="1" stop-color="#34e2a8"/>
    </linearGradient>
  </defs>
  <rect width="800" height="500" fill="url(#bg1)"/>
  <!-- sidebar -->
  <rect x="0" y="0" width="120" height="500" fill="#ffffff" opacity=".03"/>
  <rect x="24" y="40" width="72" height="12" rx="6" fill="#34e2a8" opacity=".5"/>
  <rect x="24" y="80" width="72" height="10" rx="5" fill="#ffffff" opacity=".12"/>
  <rect x="24" y="110" width="56" height="10" rx="5" fill="#ffffff" opacity=".12"/>
  <rect x="24" y="140" width="64" height="10" rx="5" fill="#ffffff" opacity=".12"/>
  <!-- kpis -->
  <rect x="160" y="40" width="170" height="80" rx="12" fill="#ffffff" opacity=".05" stroke="#ffffff" stroke-opacity=".12"/>
  <rect x="350" y="40" width="170" height="80" rx="12" fill="#ffffff" opacity=".05" stroke="#ffffff" stroke-opacity=".12"/>
  <rect x="540" y="40" width="220" height="80" rx="12" fill="#ffffff" opacity=".05" stroke="#ffffff" stroke-opacity=".12"/>
  <text x="180" y="78" fill="#34e2a8" font-size="26" font-weight="600">OAuth</text>
  <text x="180" y="100" fill="#797d8b" font-size="13">Company access</text>
  <text x="370" y="78" fill="#f6f7f9" font-size="26" font-weight="600">SMS</text>
  <text x="370" y="100" fill="#797d8b" font-size="13">Notifications</text>
  <text x="560" y="78" fill="#8b7bff" font-size="26" font-weight="600">Maps</text>
  <text x="560" y="100" fill="#797d8b" font-size="13">Rider workflow</text>
  <!-- chart -->
  <rect x="160" y="150" width="600" height="300" rx="14" fill="#ffffff" opacity=".03" stroke="#ffffff" stroke-opacity=".1"/>
  <g>
    <rect x="200" y="320" width="48" height="100" rx="6" fill="url(#bar1)"/>
    <rect x="280" y="270" width="48" height="150" rx="6" fill="url(#bar1)"/>
    <rect x="360" y="300" width="48" height="120" rx="6" fill="url(#bar1)"/>
    <rect x="440" y="220" width="48" height="200" rx="6" fill="url(#bar1)"/>
    <rect x="520" y="260" width="48" height="160" rx="6" fill="url(#bar1)"/>
    <rect x="600" y="200" width="48" height="220" rx="6" fill="url(#bar1)"/>
    <rect x="680" y="250" width="48" height="170" rx="6" fill="url(#bar1)"/>
  </g>
  <text x="184" y="486" fill="#5d5f6a" font-size="13">Invoice &amp; Rider Management System · operations dashboard</text>
</svg>
