<svg xmlns="http://www.w3.org/2000/svg" viewBox="0 0 800 500" font-family="'Space Grotesk',sans-serif">
  <defs>
    <linearGradient id="bg2" x1="0" y1="0" x2="1" y2="1">
      <stop offset="0" stop-color="#12101b"/><stop offset="1" stop-color="#0a0a12"/>
    </linearGradient>
  </defs>
  <rect width="800" height="500" fill="url(#bg2)"/>
  <rect x="60" y="60" width="420" height="26" rx="13" fill="#8b7bff" opacity=".5"/>
  <rect x="60" y="104" width="300" height="18" rx="9" fill="#ffffff" opacity=".14"/>
  <rect x="60" y="150" width="150" height="44" rx="22" fill="#8b7bff" opacity=".2" stroke="#8b7bff" stroke-opacity=".5"/>
  <text x="92" y="178" fill="#cfc7ff" font-size="16" font-weight="500">Analyze</text>
  <!-- content grid -->
  <rect x="60"  y="240" width="210" height="200" rx="14" fill="#ffffff" opacity=".05" stroke="#ffffff" stroke-opacity=".12"/>
  <rect x="295" y="240" width="210" height="200" rx="14" fill="#ffffff" opacity=".05" stroke="#ffffff" stroke-opacity=".12"/>
  <rect x="530" y="240" width="210" height="200" rx="14" fill="#ffffff" opacity=".05" stroke="#ffffff" stroke-opacity=".12"/>
  <circle cx="110" cy="290" r="18" fill="#8b7bff" opacity=".5"/>
  <circle cx="345" cy="290" r="18" fill="#34e2a8" opacity=".5"/>
  <circle cx="580" cy="290" r="18" fill="#58b9ff" opacity=".5"/>
  <rect x="92"  y="330" width="150" height="12" rx="6" fill="#ffffff" opacity=".14"/>
  <rect x="327" y="330" width="150" height="12" rx="6" fill="#ffffff" opacity=".14"/>
  <rect x="562" y="330" width="150" height="12" rx="6" fill="#ffffff" opacity=".14"/>
  <rect x="92"  y="356" width="100" height="12" rx="6" fill="#ffffff" opacity=".09"/>
  <rect x="327" y="356" width="100" height="12" rx="6" fill="#ffffff" opacity=".09"/>
  <rect x="562" y="356" width="100" height="12" rx="6" fill="#ffffff" opacity=".09"/>
  <text x="60" y="478" fill="#5d5f6a" font-size="13">Nexus SEO Intelligence Platform · audit and insight view</text>
</svg>
