<svg xmlns="http://www.w3.org/2000/svg" viewBox="0 0 460 130" role="img" aria-label="Cut Above Media">
  <defs>
    <mask id="clapLkL">
      <rect x="10" y="18" width="80" height="17" rx="4" fill="#fff"/>
      <g fill="#000">
        <path d="M18 18 L26 18 L18 35 L10 35 Z"/>
        <path d="M34 18 L42 18 L34 35 L26 35 Z"/>
        <path d="M50 18 L58 18 L50 35 L42 35 Z"/>
        <path d="M66 18 L74 18 L66 35 L58 35 Z"/>
        <path d="M82 18 L90 18 L82 35 L74 35 Z"/>
      </g>
    </mask>
  </defs>
  <g transform="translate(6 12) rotate(-7 50 54)">
    <rect x="10" y="18" width="80" height="17" rx="4" fill="#1a1a1a" mask="url(#clapLkL)"/>
    <rect x="12" y="39" width="76" height="47" rx="10" fill="#1a1a1a"/>
    <path d="M44 50 L44 78 L69 64 Z" fill="#FF6B00"/>
  </g>
  <g fill="#1a1a1a" font-family="'Space Grotesk','Sora',system-ui,sans-serif" font-weight="700">
    <text x="150" y="60" font-size="52" letter-spacing="-1.5">cut</text>
    <text x="150" y="106" font-size="52" letter-spacing="-1.5">above</text>
  </g>
  <text x="152" y="126" fill="#FF6B00" font-family="'Space Grotesk','Sora',system-ui,sans-serif" font-weight="600" font-size="13" letter-spacing="6">MEDIA</text>
</svg>
